<svg xmlns="http://www.w3.org/2000/svg" version="1.1" xmlns:xlink="http://www.w3.org/1999/xlink" xmlns:svgjs="http://svgjs.dev/svgjs" width="1920" height="1080" preserveAspectRatio="none" viewBox="0 0 1920 1080"><g mask="url(&quot;#SvgjsMask1008&quot;)" fill="none"><rect width="1920" height="1080" x="0" y="0" fill="url(&quot;#SvgjsLinearGradient1009&quot;)"></rect><path d="M -1356.1312372044097,756 C -972.13,654.6 -204.13,272.2 563.8687627955903,249 C 1331.87,225.8 2212.64,625.4 2483.8687627955906,640 C 2755.1,654.6 2032.77,385.6 1920,322" stroke="rgba(255, 255, 255, 0.58)" strokeWidth="2"></path><path d="M -972.9299732380459,526 C -588.93,569 179.07,749.8 947.0700267619541,741 C 1715.07,732.2 2672.48,521.4 2867.070026761954,482 C 3061.66,442.6 2109.41,531.6 1920,544" stroke="rgba(255, 255, 255, 0.58)" strokeWidth="2"></path><path d="M -1026.9507418445733,470 C -642.95,502.6 125.05,632.2 893.0492581554267,633 C 1661.05,633.8 2607.66,472.8 2813.0492581554267,474 C 3018.44,475.2 2098.61,606 1920,639" stroke="rgba(255, 255, 255, 0.58)" strokeWidth="2"></path><path d="M -2565.8302500181503,633 C -2181.83,584.8 -1413.83,391.4 -645.8302500181504,392 C 122.17,392.6 761,606.8 1274.1697499818497,636 C 1787.34,665.2 1790.83,557.6 1920,538" stroke="rgba(255, 255, 255, 0.58)" strokeWidth="2"></path><path d="M -1993.168131017151,549 C -1609.17,517.8 -841.17,344.2 -73.16813101715098,393 C 694.83,441.8 1448.2,826.2 1846.831868982849,793 C 2245.47,759.8 1905.37,340.2 1920,227" stroke="rgba(255, 255, 255, 0.58)" strokeWidth="2"></path><path d="M -508.6288505298244,434 C -124.63,479.6 643.37,705.4 1411.3711494701756,662 C 2179.37,618.6 3229.65,231.8 3331.3711494701756,217 C 3433.1,202.2 2202.27,513.8 1920,588" stroke="rgba(255, 255, 255, 0.58)" strokeWidth="2"></path><path d="M -1209.565462271686,601 C -825.57,524.8 -57.57,230.6 710.434537728314,220 C 1478.43,209.4 2388.52,502 2630.434537728314,548 C 2872.35,594 2062.09,469.6 1920,450" stroke="rgba(255, 255, 255, 0.58)" strokeWidth="2"></path><path d="M -3404.7098490382755,760 C -3020.71,684.4 -2252.71,423.2 -1484.7098490382755,382 C -716.71,340.8 -245.65,562.6 435.2901509617245,554 C 1116.23,545.4 1623.06,382 1920,339" stroke="rgba(255, 255, 255, 0.58)" strokeWidth="2"></path><path d="M -704.6317315363867,783 C -320.63,714.4 447.37,458.8 1215.3682684636133,440 C 1983.37,421.2 2994.44,679.4 3135.3682684636133,689 C 3276.29,698.6 2163.07,528.2 1920,488" stroke="rgba(255, 255, 255, 0.58)" strokeWidth="2"></path><path d="M -17.29933830658092,395 C 366.7,453.8 1134.7,719 1902.700661693419,689 C 2670.7,659 3819.24,263.2 3822.700661693419,245 C 3826.16,226.8 2300.54,527.4 1920,598" stroke="rgba(255, 255, 255, 0.58)" strokeWidth="2"></path></g><defs><mask id="SvgjsMask1008"><rect width="1920" height="1080" fill="#ffffff"></rect></mask><linearGradient x1="0%" y1="50%" x2="100%" y2="50%" gradientUnits="userSpaceOnUse" id="SvgjsLinearGradient1009"><stop stop-color="#0e2a47" offset="0"></stop><stop stop-color="rgba(81, 65, 216, 1)" offset="1"></stop></linearGradient></defs></svg>